<svg width="24" height="24" viewBox="0 0 24 24" fill="none" xmlns="http://www.w3.org/2000/svg">
<path d="M5.58 5.58C5.79094 5.36933 6.07687 5.25099 6.375 5.25099C6.67313 5.25099 6.95906 5.36933 7.17 5.58L12 10.41L16.83 5.58C16.9675 5.43192 17.1424 5.32366 17.3363 5.26664C17.5302 5.20962 17.7358 5.20594 17.9316 5.256C18.1274 5.30606 18.3061 5.408 18.4488 5.55108C18.5915 5.69416 18.6929 5.87309 18.7425 6.069C18.7926 6.26457 18.7891 6.47003 18.7324 6.66377C18.6756 6.85752 18.5677 7.03239 18.42 7.17L13.59 12L18.42 16.83C18.5681 16.9675 18.6763 17.1424 18.7334 17.3363C18.7904 17.5302 18.7941 17.7358 18.744 17.9316C18.6939 18.1274 18.592 18.3061 18.4489 18.4488C18.3058 18.5915 18.1269 18.693 17.931 18.7425C17.7354 18.7926 17.53 18.7891 17.3362 18.7324C17.1425 18.6756 16.9676 18.5677 16.83 18.42L12 13.59L7.17 18.42C6.95661 18.6186 6.67453 18.7268 6.38305 18.7217C6.09158 18.7167 5.8134 18.5989 5.607 18.393C5.40114 18.1866 5.2833 17.9084 5.27827 17.6169C5.27323 17.3255 5.38139 17.0434 5.58 16.83L10.41 12L5.58 7.17C5.36932 6.95907 5.25099 6.67313 5.25099 6.375C5.25099 6.07688 5.36932 5.79094 5.58 5.58Z" fill="#545454"/>
</svg>
